<mxfile host="app.diagrams.net" agent="Mozilla/5.0 (Windows NT 10.0; Win64; x64) AppleWebKit/537.36 (KHTML, like Gecko) Chrome/127.0.0.0 Safari/537.36 OPR/113.0.0.0" version="24.7.16">
  <diagram name="Page-1" id="NyJBCHCPPrqXN-TRPHbC">
    <mxGraphModel dx="2092" dy="1231" grid="0" gridSize="10" guides="1" tooltips="1" connect="1" arrows="1" fold="1" page="0" pageScale="1" pageWidth="850" pageHeight="1100" math="0" shadow="0">
      <root>
        <mxCell id="0" />
        <mxCell id="1" parent="0" />
        <mxCell id="9w7waXdRDV4EupU6Zrkj-1" value="Screenplay" style="rounded=0;whiteSpace=wrap;html=1;" vertex="1" parent="1">
          <mxGeometry x="223" y="-83" width="120" height="60" as="geometry" />
        </mxCell>
        <mxCell id="9w7waXdRDV4EupU6Zrkj-2" value="Movie" style="rounded=0;whiteSpace=wrap;html=1;" vertex="1" parent="1">
          <mxGeometry x="-109" y="-230" width="120" height="60" as="geometry" />
        </mxCell>
        <mxCell id="9w7waXdRDV4EupU6Zrkj-75" style="edgeStyle=none;curved=1;rounded=0;orthogonalLoop=1;jettySize=auto;html=1;exitX=0;exitY=0.5;exitDx=0;exitDy=0;entryX=1;entryY=0.5;entryDx=0;entryDy=0;fontSize=12;startSize=8;endSize=8;" edge="1" parent="1" source="9w7waXdRDV4EupU6Zrkj-3" target="9w7waXdRDV4EupU6Zrkj-69">
          <mxGeometry relative="1" as="geometry" />
        </mxCell>
        <mxCell id="9w7waXdRDV4EupU6Zrkj-3" value="Scene" style="rounded=0;whiteSpace=wrap;html=1;" vertex="1" parent="1">
          <mxGeometry x="436" y="224.5" width="120" height="60" as="geometry" />
        </mxCell>
        <mxCell id="9w7waXdRDV4EupU6Zrkj-70" style="edgeStyle=none;curved=1;rounded=0;orthogonalLoop=1;jettySize=auto;html=1;exitX=0.5;exitY=0;exitDx=0;exitDy=0;entryX=0.5;entryY=1;entryDx=0;entryDy=0;fontSize=12;startSize=8;endSize=8;" edge="1" parent="1" source="9w7waXdRDV4EupU6Zrkj-5" target="9w7waXdRDV4EupU6Zrkj-65">
          <mxGeometry relative="1" as="geometry" />
        </mxCell>
        <mxCell id="9w7waXdRDV4EupU6Zrkj-5" value="Actor" style="rounded=0;whiteSpace=wrap;html=1;" vertex="1" parent="1">
          <mxGeometry x="392" y="515" width="120" height="60" as="geometry" />
        </mxCell>
        <mxCell id="9w7waXdRDV4EupU6Zrkj-22" style="edgeStyle=none;curved=1;rounded=0;orthogonalLoop=1;jettySize=auto;html=1;exitX=1;exitY=1;exitDx=0;exitDy=0;fontSize=12;startSize=8;endSize=8;" edge="1" parent="1" source="9w7waXdRDV4EupU6Zrkj-6" target="9w7waXdRDV4EupU6Zrkj-2">
          <mxGeometry relative="1" as="geometry" />
        </mxCell>
        <mxCell id="9w7waXdRDV4EupU6Zrkj-6" value="movieid" style="ellipse;whiteSpace=wrap;html=1;" vertex="1" parent="1">
          <mxGeometry x="-204" y="-335" width="74" height="34" as="geometry" />
        </mxCell>
        <mxCell id="9w7waXdRDV4EupU6Zrkj-23" style="edgeStyle=none;curved=1;rounded=0;orthogonalLoop=1;jettySize=auto;html=1;exitX=0.5;exitY=1;exitDx=0;exitDy=0;fontSize=12;startSize=8;endSize=8;" edge="1" parent="1" source="9w7waXdRDV4EupU6Zrkj-7" target="9w7waXdRDV4EupU6Zrkj-2">
          <mxGeometry relative="1" as="geometry" />
        </mxCell>
        <mxCell id="9w7waXdRDV4EupU6Zrkj-7" value="title" style="ellipse;whiteSpace=wrap;html=1;" vertex="1" parent="1">
          <mxGeometry x="-80" y="-362" width="74" height="30" as="geometry" />
        </mxCell>
        <mxCell id="9w7waXdRDV4EupU6Zrkj-25" style="edgeStyle=none;curved=1;rounded=0;orthogonalLoop=1;jettySize=auto;html=1;exitX=0;exitY=1;exitDx=0;exitDy=0;entryX=0.75;entryY=0;entryDx=0;entryDy=0;fontSize=12;startSize=8;endSize=8;" edge="1" parent="1" source="9w7waXdRDV4EupU6Zrkj-8" target="9w7waXdRDV4EupU6Zrkj-2">
          <mxGeometry relative="1" as="geometry" />
        </mxCell>
        <mxCell id="9w7waXdRDV4EupU6Zrkj-8" value="releaseyear" style="ellipse;whiteSpace=wrap;html=1;" vertex="1" parent="1">
          <mxGeometry x="16" y="-328" width="120" height="34" as="geometry" />
        </mxCell>
        <mxCell id="9w7waXdRDV4EupU6Zrkj-74" style="edgeStyle=none;curved=1;rounded=0;orthogonalLoop=1;jettySize=auto;html=1;exitX=1;exitY=0.5;exitDx=0;exitDy=0;entryX=0;entryY=0.5;entryDx=0;entryDy=0;fontSize=12;startSize=8;endSize=8;" edge="1" parent="1" source="9w7waXdRDV4EupU6Zrkj-9" target="9w7waXdRDV4EupU6Zrkj-73">
          <mxGeometry relative="1" as="geometry" />
        </mxCell>
        <mxCell id="9w7waXdRDV4EupU6Zrkj-9" value="takeid" style="ellipse;whiteSpace=wrap;html=1;" vertex="1" parent="1">
          <mxGeometry x="-116" y="264" width="66" height="37" as="geometry" />
        </mxCell>
        <mxCell id="9w7waXdRDV4EupU6Zrkj-72" style="edgeStyle=none;curved=1;rounded=0;orthogonalLoop=1;jettySize=auto;html=1;exitX=0;exitY=0.5;exitDx=0;exitDy=0;entryX=1;entryY=0.5;entryDx=0;entryDy=0;fontSize=12;startSize=8;endSize=8;" edge="1" parent="1" source="9w7waXdRDV4EupU6Zrkj-10">
          <mxGeometry relative="1" as="geometry">
            <mxPoint x="95" y="294.5" as="targetPoint" />
          </mxGeometry>
        </mxCell>
        <mxCell id="9w7waXdRDV4EupU6Zrkj-10" value="takenumber" style="ellipse;whiteSpace=wrap;html=1;" vertex="1" parent="1">
          <mxGeometry x="144" y="312" width="86" height="43" as="geometry" />
        </mxCell>
        <mxCell id="9w7waXdRDV4EupU6Zrkj-56" style="edgeStyle=none;curved=1;rounded=0;orthogonalLoop=1;jettySize=auto;html=1;exitX=0;exitY=0.5;exitDx=0;exitDy=0;entryX=0.75;entryY=1;entryDx=0;entryDy=0;fontSize=12;startSize=8;endSize=8;" edge="1" parent="1" source="9w7waXdRDV4EupU6Zrkj-11" target="9w7waXdRDV4EupU6Zrkj-3">
          <mxGeometry relative="1" as="geometry" />
        </mxCell>
        <mxCell id="9w7waXdRDV4EupU6Zrkj-11" value="Sceneid" style="ellipse;whiteSpace=wrap;html=1;" vertex="1" parent="1">
          <mxGeometry x="561.5" y="302.5" width="79" height="36" as="geometry" />
        </mxCell>
        <mxCell id="9w7waXdRDV4EupU6Zrkj-64" style="edgeStyle=none;curved=1;rounded=0;orthogonalLoop=1;jettySize=auto;html=1;exitX=0.5;exitY=1;exitDx=0;exitDy=0;fontSize=12;startSize=8;endSize=8;entryX=0.75;entryY=0;entryDx=0;entryDy=0;" edge="1" parent="1" source="9w7waXdRDV4EupU6Zrkj-12" target="9w7waXdRDV4EupU6Zrkj-3">
          <mxGeometry relative="1" as="geometry">
            <mxPoint x="648.3611111111109" y="154.6666531032986" as="targetPoint" />
          </mxGeometry>
        </mxCell>
        <mxCell id="9w7waXdRDV4EupU6Zrkj-12" value="storylocation" style="ellipse;whiteSpace=wrap;html=1;" vertex="1" parent="1">
          <mxGeometry x="535" y="95" width="120" height="31" as="geometry" />
        </mxCell>
        <mxCell id="9w7waXdRDV4EupU6Zrkj-55" style="edgeStyle=none;curved=1;rounded=0;orthogonalLoop=1;jettySize=auto;html=1;exitX=0;exitY=0.5;exitDx=0;exitDy=0;entryX=1;entryY=0.5;entryDx=0;entryDy=0;fontSize=12;startSize=8;endSize=8;" edge="1" parent="1" source="9w7waXdRDV4EupU6Zrkj-13" target="9w7waXdRDV4EupU6Zrkj-3">
          <mxGeometry relative="1" as="geometry" />
        </mxCell>
        <mxCell id="9w7waXdRDV4EupU6Zrkj-13" value="filminglocation" style="ellipse;whiteSpace=wrap;html=1;" vertex="1" parent="1">
          <mxGeometry x="610.5" y="240.5" width="109" height="39" as="geometry" />
        </mxCell>
        <mxCell id="9w7waXdRDV4EupU6Zrkj-36" style="edgeStyle=none;curved=1;rounded=0;orthogonalLoop=1;jettySize=auto;html=1;exitX=0.5;exitY=1;exitDx=0;exitDy=0;entryX=0.5;entryY=0;entryDx=0;entryDy=0;fontSize=12;startSize=8;endSize=8;" edge="1" parent="1" source="9w7waXdRDV4EupU6Zrkj-14" target="9w7waXdRDV4EupU6Zrkj-1">
          <mxGeometry relative="1" as="geometry" />
        </mxCell>
        <mxCell id="9w7waXdRDV4EupU6Zrkj-14" value="screenplayid" style="ellipse;whiteSpace=wrap;html=1;" vertex="1" parent="1">
          <mxGeometry x="227" y="-191" width="92" height="45" as="geometry" />
        </mxCell>
        <mxCell id="9w7waXdRDV4EupU6Zrkj-37" style="edgeStyle=none;curved=1;rounded=0;orthogonalLoop=1;jettySize=auto;html=1;exitX=0;exitY=0.5;exitDx=0;exitDy=0;entryX=0.75;entryY=0;entryDx=0;entryDy=0;fontSize=12;startSize=8;endSize=8;" edge="1" parent="1" source="9w7waXdRDV4EupU6Zrkj-15" target="9w7waXdRDV4EupU6Zrkj-1">
          <mxGeometry relative="1" as="geometry" />
        </mxCell>
        <mxCell id="9w7waXdRDV4EupU6Zrkj-15" value="title" style="ellipse;whiteSpace=wrap;html=1;" vertex="1" parent="1">
          <mxGeometry x="374" y="-161" width="62" height="37" as="geometry" />
        </mxCell>
        <mxCell id="9w7waXdRDV4EupU6Zrkj-38" style="edgeStyle=none;curved=1;rounded=0;orthogonalLoop=1;jettySize=auto;html=1;exitX=0;exitY=0.5;exitDx=0;exitDy=0;entryX=1;entryY=0.25;entryDx=0;entryDy=0;fontSize=12;startSize=8;endSize=8;" edge="1" parent="1" source="9w7waXdRDV4EupU6Zrkj-16" target="9w7waXdRDV4EupU6Zrkj-1">
          <mxGeometry relative="1" as="geometry" />
        </mxCell>
        <mxCell id="9w7waXdRDV4EupU6Zrkj-16" value="author" style="ellipse;whiteSpace=wrap;html=1;" vertex="1" parent="1">
          <mxGeometry x="388" y="-73" width="73" height="34" as="geometry" />
        </mxCell>
        <mxCell id="9w7waXdRDV4EupU6Zrkj-35" style="edgeStyle=none;curved=1;rounded=0;orthogonalLoop=1;jettySize=auto;html=1;exitX=0;exitY=1;exitDx=0;exitDy=0;entryX=1;entryY=0.25;entryDx=0;entryDy=0;fontSize=12;startSize=8;endSize=8;" edge="1" parent="1" source="9w7waXdRDV4EupU6Zrkj-17" target="9w7waXdRDV4EupU6Zrkj-5">
          <mxGeometry relative="1" as="geometry" />
        </mxCell>
        <mxCell id="9w7waXdRDV4EupU6Zrkj-17" value="actorid" style="ellipse;whiteSpace=wrap;html=1;" vertex="1" parent="1">
          <mxGeometry x="549.5" y="487" width="59" height="22" as="geometry" />
        </mxCell>
        <mxCell id="9w7waXdRDV4EupU6Zrkj-33" style="edgeStyle=none;curved=1;rounded=0;orthogonalLoop=1;jettySize=auto;html=1;exitX=0;exitY=0;exitDx=0;exitDy=0;entryX=0.75;entryY=1;entryDx=0;entryDy=0;fontSize=12;startSize=8;endSize=8;" edge="1" parent="1" source="9w7waXdRDV4EupU6Zrkj-18" target="9w7waXdRDV4EupU6Zrkj-5">
          <mxGeometry relative="1" as="geometry" />
        </mxCell>
        <mxCell id="9w7waXdRDV4EupU6Zrkj-18" value="name" style="ellipse;whiteSpace=wrap;html=1;" vertex="1" parent="1">
          <mxGeometry x="558" y="603" width="62" height="29" as="geometry" />
        </mxCell>
        <mxCell id="9w7waXdRDV4EupU6Zrkj-32" style="edgeStyle=none;curved=1;rounded=0;orthogonalLoop=1;jettySize=auto;html=1;exitX=0;exitY=0;exitDx=0;exitDy=0;entryX=0.25;entryY=1;entryDx=0;entryDy=0;fontSize=12;startSize=8;endSize=8;" edge="1" parent="1" source="9w7waXdRDV4EupU6Zrkj-19" target="9w7waXdRDV4EupU6Zrkj-5">
          <mxGeometry relative="1" as="geometry" />
        </mxCell>
        <mxCell id="9w7waXdRDV4EupU6Zrkj-19" value="phonenumber" style="ellipse;whiteSpace=wrap;html=1;" vertex="1" parent="1">
          <mxGeometry x="438" y="629" width="113" height="36" as="geometry" />
        </mxCell>
        <mxCell id="9w7waXdRDV4EupU6Zrkj-31" style="edgeStyle=none;curved=1;rounded=0;orthogonalLoop=1;jettySize=auto;html=1;exitX=0.5;exitY=0;exitDx=0;exitDy=0;entryX=0;entryY=0.75;entryDx=0;entryDy=0;fontSize=12;startSize=8;endSize=8;" edge="1" parent="1" source="9w7waXdRDV4EupU6Zrkj-20" target="9w7waXdRDV4EupU6Zrkj-5">
          <mxGeometry relative="1" as="geometry" />
        </mxCell>
        <mxCell id="9w7waXdRDV4EupU6Zrkj-20" value="address" style="ellipse;whiteSpace=wrap;html=1;" vertex="1" parent="1">
          <mxGeometry x="326" y="615" width="77" height="28" as="geometry" />
        </mxCell>
        <mxCell id="9w7waXdRDV4EupU6Zrkj-34" style="edgeStyle=none;curved=1;rounded=0;orthogonalLoop=1;jettySize=auto;html=1;exitX=0;exitY=0.5;exitDx=0;exitDy=0;entryX=1;entryY=0.75;entryDx=0;entryDy=0;fontSize=12;startSize=8;endSize=8;" edge="1" parent="1" source="9w7waXdRDV4EupU6Zrkj-21" target="9w7waXdRDV4EupU6Zrkj-5">
          <mxGeometry relative="1" as="geometry" />
        </mxCell>
        <mxCell id="9w7waXdRDV4EupU6Zrkj-21" value="agentname" style="ellipse;whiteSpace=wrap;html=1;" vertex="1" parent="1">
          <mxGeometry x="546" y="532" width="79" height="35" as="geometry" />
        </mxCell>
        <mxCell id="9w7waXdRDV4EupU6Zrkj-43" style="edgeStyle=none;curved=1;rounded=0;orthogonalLoop=1;jettySize=auto;html=1;exitX=1;exitY=0;exitDx=0;exitDy=0;entryX=0.5;entryY=1;entryDx=0;entryDy=0;fontSize=12;startSize=8;endSize=8;" edge="1" parent="1" source="9w7waXdRDV4EupU6Zrkj-42" target="9w7waXdRDV4EupU6Zrkj-73">
          <mxGeometry relative="1" as="geometry">
            <mxPoint x="65" y="324.5" as="targetPoint" />
          </mxGeometry>
        </mxCell>
        <mxCell id="9w7waXdRDV4EupU6Zrkj-42" value="sequence_id" style="ellipse;whiteSpace=wrap;html=1;" vertex="1" parent="1">
          <mxGeometry x="-65" y="372.5" width="125" height="33" as="geometry" />
        </mxCell>
        <mxCell id="9w7waXdRDV4EupU6Zrkj-44" value="Based on" style="rhombus;whiteSpace=wrap;html=1;" vertex="1" parent="1">
          <mxGeometry x="61" y="-120" width="80" height="80" as="geometry" />
        </mxCell>
        <mxCell id="9w7waXdRDV4EupU6Zrkj-45" value="" style="endArrow=none;html=1;rounded=0;fontSize=12;startSize=8;endSize=8;curved=1;entryX=0.5;entryY=1;entryDx=0;entryDy=0;exitX=0;exitY=0;exitDx=0;exitDy=0;" edge="1" parent="1" source="9w7waXdRDV4EupU6Zrkj-44" target="9w7waXdRDV4EupU6Zrkj-2">
          <mxGeometry width="50" height="50" relative="1" as="geometry">
            <mxPoint x="177" y="-3" as="sourcePoint" />
            <mxPoint x="57" y="-134" as="targetPoint" />
          </mxGeometry>
        </mxCell>
        <mxCell id="9w7waXdRDV4EupU6Zrkj-46" value="" style="endArrow=none;html=1;rounded=0;fontSize=12;startSize=8;endSize=8;curved=1;entryX=1;entryY=1;entryDx=0;entryDy=0;exitX=0;exitY=0.5;exitDx=0;exitDy=0;" edge="1" parent="1" source="9w7waXdRDV4EupU6Zrkj-1" target="9w7waXdRDV4EupU6Zrkj-44">
          <mxGeometry width="50" height="50" relative="1" as="geometry">
            <mxPoint x="223" y="80" as="sourcePoint" />
            <mxPoint x="93" y="10" as="targetPoint" />
          </mxGeometry>
        </mxCell>
        <mxCell id="9w7waXdRDV4EupU6Zrkj-78" style="edgeStyle=none;curved=1;rounded=0;orthogonalLoop=1;jettySize=auto;html=1;exitX=0.5;exitY=0;exitDx=0;exitDy=0;entryX=0;entryY=1;entryDx=0;entryDy=0;fontSize=12;startSize=8;endSize=8;" edge="1" parent="1" source="9w7waXdRDV4EupU6Zrkj-47" target="9w7waXdRDV4EupU6Zrkj-77">
          <mxGeometry relative="1" as="geometry" />
        </mxCell>
        <mxCell id="9w7waXdRDV4EupU6Zrkj-47" value="Cutlist" style="rounded=0;whiteSpace=wrap;html=1;" vertex="1" parent="1">
          <mxGeometry x="-300" y="30.5" width="120" height="60" as="geometry" />
        </mxCell>
        <mxCell id="9w7waXdRDV4EupU6Zrkj-67" style="edgeStyle=none;curved=1;rounded=0;orthogonalLoop=1;jettySize=auto;html=1;exitX=1;exitY=0.5;exitDx=0;exitDy=0;entryX=0.25;entryY=0;entryDx=0;entryDy=0;fontSize=12;startSize=8;endSize=8;" edge="1" parent="1" source="9w7waXdRDV4EupU6Zrkj-48" target="9w7waXdRDV4EupU6Zrkj-47">
          <mxGeometry relative="1" as="geometry" />
        </mxCell>
        <mxCell id="9w7waXdRDV4EupU6Zrkj-48" value="cutlistid" style="ellipse;whiteSpace=wrap;html=1;" vertex="1" parent="1">
          <mxGeometry x="-414" y="-29.5" width="75" height="35" as="geometry" />
        </mxCell>
        <mxCell id="9w7waXdRDV4EupU6Zrkj-68" style="edgeStyle=none;curved=1;rounded=0;orthogonalLoop=1;jettySize=auto;html=1;exitX=1;exitY=0.5;exitDx=0;exitDy=0;entryX=0;entryY=0.5;entryDx=0;entryDy=0;fontSize=12;startSize=8;endSize=8;" edge="1" parent="1" source="9w7waXdRDV4EupU6Zrkj-49" target="9w7waXdRDV4EupU6Zrkj-47">
          <mxGeometry relative="1" as="geometry" />
        </mxCell>
        <mxCell id="9w7waXdRDV4EupU6Zrkj-49" value="ordernumber" style="ellipse;whiteSpace=wrap;html=1;" vertex="1" parent="1">
          <mxGeometry x="-456" y="74.5" width="105" height="29" as="geometry" />
        </mxCell>
        <mxCell id="9w7waXdRDV4EupU6Zrkj-50" value="1" style="text;html=1;align=center;verticalAlign=middle;resizable=0;points=[];autosize=1;strokeColor=none;fillColor=none;fontSize=16;" vertex="1" parent="1">
          <mxGeometry x="60.5" y="-160.5" width="27" height="31" as="geometry" />
        </mxCell>
        <mxCell id="9w7waXdRDV4EupU6Zrkj-51" value="1" style="text;html=1;align=center;verticalAlign=middle;resizable=0;points=[];autosize=1;strokeColor=none;fillColor=none;fontSize=16;" vertex="1" parent="1">
          <mxGeometry x="116.5" y="-60.5" width="27" height="31" as="geometry" />
        </mxCell>
        <mxCell id="9w7waXdRDV4EupU6Zrkj-58" style="edgeStyle=none;curved=1;rounded=0;orthogonalLoop=1;jettySize=auto;html=1;exitX=0.5;exitY=0;exitDx=0;exitDy=0;entryX=0.5;entryY=1;entryDx=0;entryDy=0;fontSize=12;startSize=8;endSize=8;" edge="1" parent="1" source="9w7waXdRDV4EupU6Zrkj-57" target="9w7waXdRDV4EupU6Zrkj-1">
          <mxGeometry relative="1" as="geometry" />
        </mxCell>
        <mxCell id="9w7waXdRDV4EupU6Zrkj-60" style="edgeStyle=none;curved=1;rounded=0;orthogonalLoop=1;jettySize=auto;html=1;exitX=1;exitY=1;exitDx=0;exitDy=0;entryX=0.5;entryY=0;entryDx=0;entryDy=0;fontSize=12;startSize=8;endSize=8;" edge="1" parent="1" source="9w7waXdRDV4EupU6Zrkj-57" target="9w7waXdRDV4EupU6Zrkj-3">
          <mxGeometry relative="1" as="geometry" />
        </mxCell>
        <mxCell id="9w7waXdRDV4EupU6Zrkj-57" value="Belongs to" style="rhombus;whiteSpace=wrap;html=1;" vertex="1" parent="1">
          <mxGeometry x="258" y="31" width="80" height="80" as="geometry" />
        </mxCell>
        <mxCell id="9w7waXdRDV4EupU6Zrkj-61" value="N" style="text;html=1;align=center;verticalAlign=middle;resizable=0;points=[];autosize=1;strokeColor=none;fillColor=none;fontSize=16;" vertex="1" parent="1">
          <mxGeometry x="333" y="71" width="30" height="31" as="geometry" />
        </mxCell>
        <mxCell id="9w7waXdRDV4EupU6Zrkj-63" value="1" style="text;html=1;align=center;verticalAlign=middle;resizable=0;points=[];autosize=1;strokeColor=none;fillColor=none;fontSize=16;" vertex="1" parent="1">
          <mxGeometry x="252" y="27" width="27" height="31" as="geometry" />
        </mxCell>
        <mxCell id="9w7waXdRDV4EupU6Zrkj-65" value="Appeats in" style="rhombus;whiteSpace=wrap;html=1;" vertex="1" parent="1">
          <mxGeometry x="407.75" y="367" width="88.5" height="64" as="geometry" />
        </mxCell>
        <mxCell id="9w7waXdRDV4EupU6Zrkj-69" value="Contains" style="rhombus;whiteSpace=wrap;html=1;" vertex="1" parent="1">
          <mxGeometry x="255" y="204.5" width="80" height="80" as="geometry" />
        </mxCell>
        <mxCell id="9w7waXdRDV4EupU6Zrkj-71" style="edgeStyle=none;curved=1;rounded=0;orthogonalLoop=1;jettySize=auto;html=1;exitX=1;exitY=0;exitDx=0;exitDy=0;entryX=0.14;entryY=0.762;entryDx=0;entryDy=0;entryPerimeter=0;fontSize=12;startSize=8;endSize=8;" edge="1" parent="1" source="9w7waXdRDV4EupU6Zrkj-65" target="9w7waXdRDV4EupU6Zrkj-3">
          <mxGeometry relative="1" as="geometry" />
        </mxCell>
        <mxCell id="9w7waXdRDV4EupU6Zrkj-76" style="edgeStyle=none;curved=1;rounded=0;orthogonalLoop=1;jettySize=auto;html=1;exitX=1;exitY=0.5;exitDx=0;exitDy=0;entryX=0;entryY=0.5;entryDx=0;entryDy=0;fontSize=12;startSize=8;endSize=8;" edge="1" parent="1" source="9w7waXdRDV4EupU6Zrkj-73" target="9w7waXdRDV4EupU6Zrkj-69">
          <mxGeometry relative="1" as="geometry" />
        </mxCell>
        <mxCell id="9w7waXdRDV4EupU6Zrkj-73" value="Take" style="rounded=0;whiteSpace=wrap;html=1;" vertex="1" parent="1">
          <mxGeometry y="235.5" width="120" height="60" as="geometry" />
        </mxCell>
        <mxCell id="9w7waXdRDV4EupU6Zrkj-79" style="edgeStyle=none;curved=1;rounded=0;orthogonalLoop=1;jettySize=auto;html=1;exitX=1;exitY=0;exitDx=0;exitDy=0;entryX=0;entryY=0.5;entryDx=0;entryDy=0;fontSize=12;startSize=8;endSize=8;" edge="1" parent="1" source="9w7waXdRDV4EupU6Zrkj-77" target="9w7waXdRDV4EupU6Zrkj-2">
          <mxGeometry relative="1" as="geometry" />
        </mxCell>
        <mxCell id="9w7waXdRDV4EupU6Zrkj-77" value="Used in" style="rhombus;whiteSpace=wrap;html=1;" vertex="1" parent="1">
          <mxGeometry x="-265" y="-140.5" width="80" height="80" as="geometry" />
        </mxCell>
        <mxCell id="9w7waXdRDV4EupU6Zrkj-82" style="edgeStyle=none;curved=1;rounded=0;orthogonalLoop=1;jettySize=auto;html=1;exitX=1;exitY=1;exitDx=0;exitDy=0;entryX=0.5;entryY=0;entryDx=0;entryDy=0;fontSize=12;startSize=8;endSize=8;" edge="1" parent="1" source="9w7waXdRDV4EupU6Zrkj-80" target="9w7waXdRDV4EupU6Zrkj-73">
          <mxGeometry relative="1" as="geometry" />
        </mxCell>
        <mxCell id="9w7waXdRDV4EupU6Zrkj-83" style="edgeStyle=none;curved=1;rounded=0;orthogonalLoop=1;jettySize=auto;html=1;exitX=0;exitY=0;exitDx=0;exitDy=0;entryX=0.5;entryY=1;entryDx=0;entryDy=0;fontSize=12;startSize=8;endSize=8;" edge="1" parent="1" source="9w7waXdRDV4EupU6Zrkj-80" target="9w7waXdRDV4EupU6Zrkj-47">
          <mxGeometry relative="1" as="geometry" />
        </mxCell>
        <mxCell id="9w7waXdRDV4EupU6Zrkj-80" value="Contains" style="rhombus;whiteSpace=wrap;html=1;" vertex="1" parent="1">
          <mxGeometry x="-196" y="160.5" width="80" height="80" as="geometry" />
        </mxCell>
        <mxCell id="9w7waXdRDV4EupU6Zrkj-84" value="N" style="text;html=1;align=center;verticalAlign=middle;whiteSpace=wrap;rounded=0;fontSize=16;" vertex="1" parent="1">
          <mxGeometry x="-230" y="156" width="60" height="30" as="geometry" />
        </mxCell>
        <mxCell id="9w7waXdRDV4EupU6Zrkj-85" value="1" style="text;html=1;align=center;verticalAlign=middle;whiteSpace=wrap;rounded=0;fontSize=16;" vertex="1" parent="1">
          <mxGeometry x="-130" y="191" width="60" height="30" as="geometry" />
        </mxCell>
        <mxCell id="9w7waXdRDV4EupU6Zrkj-86" value="N" style="text;html=1;align=center;verticalAlign=middle;whiteSpace=wrap;rounded=0;fontSize=16;" vertex="1" parent="1">
          <mxGeometry x="-197" y="-136" width="60" height="30" as="geometry" />
        </mxCell>
        <mxCell id="9w7waXdRDV4EupU6Zrkj-87" value="N" style="text;html=1;align=center;verticalAlign=middle;resizable=0;points=[];autosize=1;strokeColor=none;fillColor=none;fontSize=16;" vertex="1" parent="1">
          <mxGeometry x="-287" y="-70" width="30" height="31" as="geometry" />
        </mxCell>
        <mxCell id="9w7waXdRDV4EupU6Zrkj-88" value="1" style="text;html=1;align=center;verticalAlign=middle;whiteSpace=wrap;rounded=0;fontSize=16;" vertex="1" parent="1">
          <mxGeometry x="314" y="205.5" width="60" height="30" as="geometry" />
        </mxCell>
        <mxCell id="9w7waXdRDV4EupU6Zrkj-89" value="N" style="text;html=1;align=center;verticalAlign=middle;resizable=0;points=[];autosize=1;strokeColor=none;fillColor=none;fontSize=16;" vertex="1" parent="1">
          <mxGeometry x="228" y="260" width="30" height="31" as="geometry" />
        </mxCell>
        <mxCell id="9w7waXdRDV4EupU6Zrkj-90" value="N" style="text;html=1;align=center;verticalAlign=middle;whiteSpace=wrap;rounded=0;fontSize=16;" vertex="1" parent="1">
          <mxGeometry x="469" y="413" width="60" height="30" as="geometry" />
        </mxCell>
        <mxCell id="9w7waXdRDV4EupU6Zrkj-91" value="N" style="text;html=1;align=center;verticalAlign=middle;whiteSpace=wrap;rounded=0;fontSize=16;" vertex="1" parent="1">
          <mxGeometry x="385" y="349" width="60" height="30" as="geometry" />
        </mxCell>
      </root>
    </mxGraphModel>
  </diagram>
</mxfile>
